<svg xmlns="http://www.w3.org/2000/svg" xmlns:xlink="http://www.w3.org/1999/xlink" viewBox="0 0 180 180"><defs><radialGradient id="c" cx="50.001%" cy="50%" r="50%" fx="50.001%" fy="50%"><stop offset="0%" stop-color="#F08423" stop-opacity="0"/><stop offset="100%" stop-color="#F08423" stop-opacity=".34"/></radialGradient><radialGradient id="d" cx="50%" cy="44.086%" r="57.412%" fx="50%" fy="44.086%" gradientTransform="matrix(-1 0 0 -.83877 1 .81)"><stop offset="0%" stop-color="#FFE874"/><stop offset="100%" stop-color="#FFE368" stop-opacity="0"/></radialGradient><radialGradient id="e" cx="10.82%" cy="52.019%" r="10.077%" fx="10.82%" fy="52.019%" gradientTransform="matrix(.91249 .4091 -.31644 .7058 .174 .109)"><stop offset="0%" stop-color="#F28A2D" stop-opacity=".5"/><stop offset="100%" stop-color="#F28A2D" stop-opacity="0"/></radialGradient><radialGradient id="f" cx="74.131%" cy="76.545%" r="28.284%" fx="74.131%" fy="76.545%" gradientTransform="rotate(-38.243 1.4 .537) scale(1 .40312)"><stop offset="0%" stop-color="#F28A2D" stop-opacity=".5"/><stop offset="100%" stop-color="#F28A2D" stop-opacity="0"/></radialGradient><radialGradient id="g" cx="31.849%" cy="12.675%" r="10.743%" fx="31.849%" fy="12.675%" gradientTransform="matrix(.98371 -.17976 .03575 .19562 0 .16)"><stop offset="0%" stop-color="#D45F00" stop-opacity=".25"/><stop offset="100%" stop-color="#D45F00" stop-opacity="0"/></radialGradient><radialGradient id="h" cx="68.023%" cy="12.637%" r="12.093%" fx="68.023%" fy="12.637%" gradientTransform="rotate(11.848 .192 .076) scale(1 .19886)"><stop offset="0%" stop-color="#D45F00" stop-opacity=".25"/><stop offset="100%" stop-color="#D45F00" stop-opacity="0"/></radialGradient><radialGradient id="j" cx="50.709%" cy="66.964%" r="87.22%" fx="50.709%" fy="66.964%" gradientTransform="matrix(0 -.8825 1 0 -.163 1.117)"><stop offset="0%" stop-color="#3B446B"/><stop offset="68.84%" stop-color="#202340"/></radialGradient><radialGradient id="k" cx="49.239%" cy="66.964%" r="87.22%" fx="49.239%" fy="66.964%" gradientTransform="matrix(0 -.8825 1 0 -.177 1.104)"><stop offset="0%" stop-color="#3B446B"/><stop offset="68.84%" stop-color="#202340"/></radialGradient><radialGradient id="l" cx="48.317%" cy="42.726%" r="29.766%" fx="48.317%" fy="42.726%" gradientTransform="matrix(-.09519 -.96847 1.71516 -1.15488 -.204 1.389)"><stop offset="0%" stop-color="#E38200"/><stop offset="100%" stop-color="#CD6700"/></radialGradient><radialGradient id="m" cx="50%" cy="29.807%" r="31.377%" fx="50%" fy="29.807%" gradientTransform="matrix(.07236 -.9819 2.22613 1.12405 -.2 .454)"><stop offset="0%" stop-color="#E38200"/><stop offset="100%" stop-color="#CD6700"/></radialGradient><radialGradient id="p" cx="73.646%" cy="44.274%" r="29.002%" fx="73.646%" fy="44.274%" gradientTransform="scale(.92955 1) rotate(20.36 .764 .598)"><stop offset="0%" stop-color="#FF7091" stop-opacity=".7"/><stop offset="100%" stop-color="#FE6D8E" stop-opacity="0"/></radialGradient><radialGradient id="q" cx="26.749%" cy="29.688%" r="29.002%" fx="26.749%" fy="29.688%" gradientTransform="scale(.92955 1) rotate(20.36 .278 .353)"><stop offset="0%" stop-color="#FF7091" stop-opacity=".7"/><stop offset="100%" stop-color="#FE6D8E" stop-opacity="0"/></radialGradient><radialGradient id="r" cx="23.798%" cy="53.35%" r="24.89%" fx="23.798%" fy="53.35%" gradientTransform="matrix(-.18738 .97947 -1.25372 -.27758 .951 .449)"><stop offset="0%" stop-color="#9C0600" stop-opacity=".999"/><stop offset="26.692%" stop-color="#9C0600" stop-opacity=".94"/><stop offset="100%" stop-color="#9C0600" stop-opacity="0"/></radialGradient><radialGradient id="s" cx="97.063%" cy="54.555%" r="15.021%" fx="97.063%" fy="54.555%" gradientTransform="matrix(.8002 .50886 -.59365 1.08039 .518 -.538)"><stop offset="0%" stop-color="#C71C08" stop-opacity=".75"/><stop offset="53.056%" stop-color="#C71C08" stop-opacity=".704"/><stop offset="100%" stop-color="#C71C08" stop-opacity="0"/></radialGradient><radialGradient id="t" cx="4.056%" cy="24.23%" r="13.05%" fx="4.056%" fy="24.23%" gradientTransform="matrix(.8728 -.3441 .41218 1.20997 -.095 -.037)"><stop offset="0%" stop-color="#9C0600" stop-opacity=".5"/><stop offset="31.614%" stop-color="#9C0600" stop-opacity=".473"/><stop offset="100%" stop-color="#9C0600" stop-opacity="0"/></radialGradient><radialGradient id="u" cx="74.586%" cy="77.013%" r="17.563%" fx="74.586%" fy="77.013%" gradientTransform="matrix(.77041 .55955 -.56333 .89765 .605 -.339)"><stop offset="0%" stop-color="#9C0600" stop-opacity=".999"/><stop offset="45.7%" stop-color="#9C0600" stop-opacity=".934"/><stop offset="59.211%" stop-color="#9C0600" stop-opacity=".803"/><stop offset="100%" stop-color="#9C0600" stop-opacity="0"/></radialGradient><radialGradient id="v" cx="50.001%" cy="50%" r="51.087%" fx="50.001%" fy="50%" gradientTransform="matrix(-.3809 .91219 -.97139 -.46943 1.176 .279)"><stop offset="0%" stop-color="#C71C08" stop-opacity="0"/><stop offset="100%" stop-color="#C71C08"/></radialGradient><radialGradient id="x" cx="2.243%" cy="4.089%" r="122.873%" fx="2.243%" fy="4.089%" gradientTransform="scale(.78523 1) rotate(36.406 .025 .05)"><stop offset="0%" stop-color="#EDA83A"/><stop offset="100%" stop-color="#FFDC5E"/></radialGradient><radialGradient id="z" cx="100%" cy="7.011%" r="105.039%" fx="100%" fy="7.011%" gradientTransform="scale(-.90713 -1) rotate(-45.799 -.217 2.489)"><stop offset="0%" stop-color="#F4B248"/><stop offset="100%" stop-color="#FFDD5F"/></radialGradient><linearGradient id="b" x1="50%" x2="50%" y1="95.035%" y2="7.417%"><stop offset="0%" stop-color="#F28A2D"/><stop offset="100%" stop-color="#FDE86F"/></linearGradient><linearGradient id="i" x1="49.985%" x2="49.985%" y1="-40.061%" y2="111.909%"><stop offset="0%" stop-color="#482314"/><stop offset="100%" stop-color="#9A4111"/></linearGradient><linearGradient id="o" x1="52.727%" x2="28.964%" y1="31.334%" y2="102.251%"><stop offset="0%" stop-color="#F34462"/><stop offset="100%" stop-color="#CC0820"/></linearGradient><path id="a" d="M180 90c0 49.71-40.29 90-90 90S0 139.71 0 90 40.29 0 90 0s90 40.29 90 90z"/><path id="n" d="M108.947 95.828c-23.47-7.285-31.71 8.844-31.71 8.844s2.376-17.954-21.095-25.24c-22.57-7.004-36.253 13.757-37.307 26.812-2.264 28.103 22.134 59.996 31.26 70.86a8.062 8.062 0 008.34 2.584c13.697-3.777 51.904-16.242 66.009-40.667 6.54-11.328 7.06-36.188-15.497-43.193z"/><path id="w" d="M180.642 90c0 49.71-40.289 90-90 90-49.71 0-90-40.29-90-90s40.29-90 90-90c49.711 0 90 40.29 90 90z"/></defs><g fill="none" fill-rule="evenodd"><g fill-rule="nonzero"><g transform="translate(.005 -.004)"><use fill="url(#b)" xlink:href="#a"/><use fill="url(#c)" xlink:href="#a"/><use fill="url(#d)" xlink:href="#a"/><use fill="url(#e)" xlink:href="#a"/><use fill="url(#f)" xlink:href="#a"/><use fill="url(#g)" xlink:href="#a"/><use fill="url(#h)" xlink:href="#a"/></g><path fill="url(#i)" d="M109.013 66.234c-1.14-3.051-36.872-3.051-38.011 0-1.322 3.558 6.806 8.396 19.012 8.255 12.192.14 20.306-4.71 18.999-8.255z" transform="translate(.005 -.004)"/><path fill="url(#j)" d="M68.006 46.125c.014 7.566-4.823 9.788-11.995 10.702-7.102 1.068-11.883-2.068-11.995-10.702-.099-7.256 3.81-16.116 11.995-16.284 8.17.168 11.981 9.028 11.995 16.284z" transform="translate(.005 -.004)"/><path fill="#4E506A" d="M54.807 35.054c1.18 1.378.97 3.769-.479 5.358-1.448 1.575-3.571 1.744-4.753.366-1.181-1.378-.97-3.77.478-5.344 1.449-1.59 3.572-1.744 4.754-.38z"/><path fill="url(#k)" d="M112.022 46.125c-.014 7.566 4.823 9.788 11.995 10.702 7.102 1.068 11.883-2.068 11.995-10.702.099-7.256-3.81-16.116-11.995-16.284-8.184.168-11.995 9.028-11.995 16.284z" transform="translate(.005 -.004)"/><path fill="#4E506A" d="M124.078 34.52c.957 1.547.38 3.881-1.293 5.217-1.674 1.336-3.797 1.181-4.753-.366-.957-1.546-.38-3.88 1.293-5.217 1.66-1.336 3.797-1.181 4.753.366z"/><path fill="url(#l)" d="M37.969 23.344c-2.349 1.983-.45 6.047 3.515 4.19 6.328-2.967 19.899-6.623 31.824-5.287 3.164.351 4.19-.113 3.487-4.022-.689-3.853-4.33-6.37-13.387-5.26-14.035 1.716-23.09 8.396-25.44 10.379z" transform="translate(.005 -.004)"/><path fill="url(#m)" d="M116.592 12.952c-9.056-1.111-12.698 1.42-13.387 5.259-.703 3.91.323 4.373 3.487 4.022 11.925-1.336 25.481 2.32 31.824 5.287 3.965 1.857 5.864-2.207 3.515-4.19-2.348-1.97-11.404-8.649-25.439-10.378z" transform="translate(.005 -.004)"/></g><g fill-rule="nonzero"><use fill="url(#o)" xlink:href="#n"/><use fill="url(#p)" xlink:href="#n"/><use fill="url(#q)" xlink:href="#n"/><use fill="url(#r)" xlink:href="#n"/><use fill="url(#s)" xlink:href="#n"/><use fill="url(#t)" xlink:href="#n"/><use fill="url(#u)" xlink:href="#n"/><use fill="url(#v)" fill-opacity=".5" xlink:href="#n"/></g><g transform="translate(-.637 -.004)"><mask id="y" fill="#fff"><use xlink:href="#w"/></mask><path fill="url(#x)" fill-rule="nonzero" d="M15.52 86.231C9.642 80.508-.708 77.892-1.89 91.153c-.927 10.364 3.93 27.694 16.234 37.763C45.282 154.23 74.742 139.667 75.628 122c.699-13.932-15.502-12.327-20.648-12.045-.352.014-.507-.45-.197-.647a48.147 48.147 0 004.725-3.488c4.036-3.403 1.968-9.31-3.67-7.607-.858.253-14.583 4.359-23.288 1.068-9.872-3.726-11.053-7.214-17.03-13.05z" mask="url(#y)"/><path fill="url(#z)" fill-rule="nonzero" d="M161.081 88.2c3.502-6.778 9.066-4.401 12.194-3.359 4.61 1.537 7.353 4.4 7.353 11.572 0 17.001-2.812 32.765-17.002 48.6-25.987 28.982-69.935 25.143-73.675 6.862-3.094-15.16 13.066-16.678 18.34-17.381.365-.042.421-.605.098-.746a46.169 46.169 0 01-5.4-2.896c-5.444-3.403-3.989-10.051 2.405-9.07 6.806 1.012 15.23 2.924 22.486 2.207 21.009-2.11 24.975-19.87 33.201-35.789z" mask="url(#y)"/></g></g></svg>